<svg width="800" height="800" viewBox="0 0 800 800" fill="none" xmlns="http://www.w3.org/2000/svg">
<g clip-path="url(#clip0)">
<path fill-rule="evenodd" clip-rule="evenodd" d="M163.669 172.185C150.677 146.804 146.575 124.838 152.446 97.9171C164.378 42.9681 206.408 28.7737 256.197 48.3451C278.403 57.0542 296.615 71.8621 312.553 89.0757C378.306 68.814 449.042 71.9035 512.778 97.8209L517.662 99.0238C537.666 75.0377 570.001 56.7174 600.17 52.832C641.995 47.4309 682.617 57.0061 686.407 106.313C687.766 124.032 681.848 145.757 674.281 161.732L661.759 188.196L658.547 187.137C666.895 201.572 674.065 216.007 678.347 228.878C684.494 247.307 692.193 276.838 686.467 296.374L685.36 300.163L683.616 303.182C679.827 310.111 675.52 324.053 678.191 331.703C689.017 362.654 681.583 404.167 661.458 430.053C658.79 433.477 655.866 436.694 652.713 439.677C650.488 445.98 647.805 453.234 644.93 461.185C645.135 462.388 645.291 463.591 645.435 464.878C667.172 463.434 687.802 465.804 708.384 479.216C708.384 479.216 666.51 478.916 645.977 481.622C645.848 484.229 645.628 486.839 645.315 489.453C670.696 495.059 693.516 504.466 712.317 526.828C712.317 526.828 664.453 511.984 641.345 508.423C636.967 522.858 629.653 536.09 619.693 546.026C617.385 557.317 615.921 568.765 615.314 580.273C623.336 582.646 631.617 584.032 639.974 584.399C691.699 586.011 733.056 563.95 733.056 563.95C715.553 787.054 376.548 795.51 226.184 709.153C29.7965 596.404 22.555 333.953 163.633 172.137" fill="#0F111A"/>
<path fill-rule="evenodd" clip-rule="evenodd" d="M515.196 516.326C515.196 516.326 498.8 514.438 471.675 523.893C444.549 533.348 430.655 539.663 415.523 536.511C400.39 533.36 394.7 519.478 394.7 519.478C394.7 519.478 406.729 510.637 429.404 506.859C452.079 503.082 476.715 501.819 476.715 501.819C476.715 501.819 437.019 495.516 419.312 496.779C401.605 498.042 392.174 502.457 392.174 502.457C392.174 502.457 388.397 492.364 394.075 487.312C399.753 482.26 421.826 478.483 437.596 478.483C447.302 478.499 456.997 479.13 466.622 480.371C466.622 480.371 440.748 468.342 420.563 467.139C400.378 465.936 390.911 468.414 390.911 468.414C390.911 468.414 394.7 457.696 402.94 453.979C411.18 450.262 417.459 449.553 428.201 452.704C438.943 455.856 454.064 462.797 454.064 462.797C454.064 462.797 433.879 445.126 423.149 442.612C417.16 441.133 411.031 440.286 404.865 440.086L417.471 427.467C417.471 427.467 398.562 426.842 380.253 447.027C361.945 467.211 366.312 499.281 366.312 499.281C366.312 499.281 356.207 487.938 317.1 466.49C277.994 445.042 269.152 424.231 265.989 398.982C262.825 373.733 267.889 357.975 267.889 357.975C267.889 357.975 229.829 380.83 219.111 432.555C191.228 566.981 230.034 612.992 281.566 679.574C300.813 704.51 220.783 656.357 195.137 630.254C89.6176 522.714 62.5159 312.685 232.62 178.681C232.62 178.681 257.039 161.84 238.959 134.714C220.879 107.589 210.546 101.045 201.513 110.103C192.479 119.161 196.352 164.33 196.352 164.33C196.352 164.33 178.308 134.642 184.732 104.942C191.155 75.2423 207.972 64.9093 244.132 79.1036C280.291 93.298 308.692 135.917 321.599 153.997C334.507 172.077 335.806 175.962 335.806 175.962L331.932 133.343C331.932 133.343 349.976 121.723 431.353 121.723C512.73 121.723 555.313 148.836 555.313 148.836L539.82 124.297C539.82 124.297 564.359 90.7117 604.392 85.5512C644.425 80.3907 652.172 92.0229 653.459 108.804C654.746 125.584 644.413 147.537 644.413 147.537C644.413 147.537 650.861 115.263 631.494 116.55C612.127 117.837 595.346 152.71 595.346 152.71C595.346 152.71 635.379 204.363 646.999 239.211C658.619 274.06 654.746 286.991 654.746 286.991C654.746 286.991 637.965 316.691 646.999 342.505C656.033 368.32 644.401 398.032 635.367 409.652C626.333 421.272 618.586 422.559 618.586 422.559L581.14 413.525C581.14 413.525 596.633 425.158 609.553 456.133C618.526 477.665 611.285 503.563 599.544 518.227C597.632 542.454 589.199 568.22 573.898 583.521C577.579 568.809 577.375 548.468 574.403 529.883C556.083 528.512 534.707 516.82 534.707 516.82C534.707 516.82 535.994 496.165 556.66 481.935C577.327 467.705 573.357 442.937 583.786 435.454C594.215 427.972 572.154 441.914 535.994 445.788C499.835 449.661 470.147 435.454 470.147 435.454C470.147 435.454 470.147 452.235 488.191 465.154C506.234 478.074 534.719 516.82 515.196 516.326Z" fill="#F2F2F2"/>
<path fill-rule="evenodd" clip-rule="evenodd" d="M116.67 479.866C94.8977 378.497 123.563 264.545 232.631 178.597C232.631 178.597 251.661 165.449 243.662 143.712C247.776 148.524 249.424 143.929 255.39 174.603C261.357 205.277 166.627 259.865 137.757 361.391C108.888 462.917 118.03 457.817 116.719 479.866" fill="white"/>
<path fill-rule="evenodd" clip-rule="evenodd" d="M555.241 148.704V148.62L555.373 148.704H555.241ZM333.773 153.516L331.932 133.343C331.932 133.343 349.976 121.723 431.353 121.723C509.338 121.723 551.716 146.623 555.096 148.692C480.311 141.378 415.474 132.79 333.833 153.504L333.773 153.516Z" fill="white"/>
<path fill-rule="evenodd" clip-rule="evenodd" d="M555.325 148.824L539.819 124.297C539.819 124.297 564.359 90.7114 604.392 85.5509C641.802 80.7393 651.017 90.5671 653.11 105.579C615.627 101.129 581.921 125.115 555.325 148.824Z" fill="white"/>
<path fill-rule="evenodd" clip-rule="evenodd" d="M197.976 78.9471C207.683 70.8876 222.407 70.5267 244.131 79.0914C280.291 93.2978 308.692 135.905 321.599 153.985C333.303 170.38 335.456 175.096 335.769 175.83L299.598 176.022C299.598 176.022 288.122 144.482 241.208 102.464C224.079 87.1149 209.548 80.8116 198 78.9471" fill="white"/>
<path fill-rule="evenodd" clip-rule="evenodd" d="M560.365 504.983L588.032 514.305C596.57 504.2 600.97 491.24 600.35 478.026C599.352 455.724 592.687 446.75 592.687 446.75C592.687 446.75 592.687 465.72 581.043 475.379C569.399 485.039 560.365 504.983 560.365 504.983ZM413.514 431.28L417.411 427.383C417.411 427.383 398.489 426.757 380.193 446.942C361.897 467.127 366.311 499.293 366.311 499.293C366.311 499.293 356.231 487.938 317.112 466.49C277.993 445.042 269.164 424.231 266 398.994C262.837 373.757 267.901 357.975 267.901 357.975C132.465 463.976 280.495 700.444 462.977 724.021C290.528 719.643 156.054 655.215 117.224 480.888C151.399 411.925 248.185 297.757 319.277 296.013C319.277 296.013 275.708 355.497 305.817 388.866C339.643 426.348 370.666 387.374 418.313 426.89L413.514 431.28ZM470.375 524.362C449.3 531.784 407.956 551.884 394.7 519.49C394.7 519.49 406.729 510.661 429.404 506.871C452.079 503.082 476.715 501.831 476.715 501.831C476.715 501.831 437.018 495.528 419.312 496.791C401.605 498.054 392.186 502.457 392.186 502.457C392.186 502.457 388.397 492.376 394.074 487.324C399.752 482.272 421.826 478.495 437.596 478.495C447.301 478.511 456.996 479.142 466.622 480.383C466.622 480.383 440.748 468.354 420.563 467.151C400.378 465.948 390.911 468.354 390.911 468.354C390.911 468.354 394.7 457.636 402.94 453.847C411.18 450.058 417.459 449.432 428.201 452.644C431.99 453.847 435.96 455.459 439.809 456.722C443.719 458.671 449.661 460.716 454.052 462.737L452.933 461.786C465.287 467.127 476.582 473.334 476.582 473.334C476.582 473.334 464.986 469.04 457.047 450.792C449.264 432.916 455.579 411.252 455.844 410.374C457.047 405.562 466.466 393.256 469.894 389.455C468.15 420.105 465.576 451.056 488.238 465.239C507.678 477.388 534.719 516.88 515.256 516.386C515.256 516.386 498.86 514.498 471.735 523.953L470.375 524.362ZM594.684 402.627L616.337 409.291C616.337 409.291 629.677 398.056 635.92 384.728C642.163 371.399 639.24 360.994 639.24 360.994C639.24 360.994 609.3 399.704 594.684 402.615V402.627Z" fill="#E6E6E6"/>
<path d="M457.924 590.467C474.519 576.24 513.122 557.583 534.775 596.779C521.932 605.704 488.58 616.938 457.924 590.467Z" fill="#F11012"/>
<path d="M447.408 578.073C452.734 582.729 459.592 586.783 467.518 589.961C475.444 593.138 484.253 595.365 493.352 596.492C502.45 597.619 511.625 597.619 520.258 596.492C528.891 595.365 536.78 593.138 543.393 589.96C544.434 589.424 545.796 589.129 547.265 589.12C548.734 589.111 550.225 589.389 551.503 589.911C552.781 590.432 553.772 591.167 554.321 592C554.869 592.832 554.943 593.714 554.531 594.506C547.664 608.848 520.444 616.66 490.773 612.985C461.102 609.311 437.397 595.192 435.506 579.766C435.501 578.967 435.923 578.216 436.713 577.615C437.504 577.014 438.625 576.592 439.925 576.407C441.225 576.222 442.641 576.283 443.979 576.581C445.318 576.879 446.515 577.4 447.408 578.073Z" fill="#E6E6E6"/>
<circle cx="393" cy="310" r="46" fill="white"/>
<path fill-rule="evenodd" clip-rule="evenodd" d="M393 251C360.279 251 334 277.279 334 310C334 342.721 360.279 369 393 369C425.721 369 452 342.721 452 310C452 277.279 425.721 251 393 251ZM393 352.144C369.7 352.144 350.856 333.305 350.856 310C350.856 286.7 369.695 267.856 393 267.856C416.3 267.856 435.144 286.695 435.144 310C435.144 333.3 416.305 352.144 393 352.144Z" fill="black"/>
<path fill-rule="evenodd" clip-rule="evenodd" d="M407.874 312.48C399.941 312.48 393.497 306.037 393.497 298.103C393.497 290.668 398.949 284.717 405.891 283.726C401.923 281.744 397.461 280.753 392.999 280.753C376.636 280.753 363.748 293.646 363.748 310.004C363.748 326.367 376.64 339.255 392.999 339.255C409.362 339.255 422.25 326.363 422.25 310.004C422.25 307.524 421.752 305.542 421.259 303.062C419.277 308.515 414.317 312.484 407.873 312.484L407.874 312.48Z" fill="black"/>
<circle cx="552" cy="310" r="46" fill="white"/>
<path fill-rule="evenodd" clip-rule="evenodd" d="M552 251C519.279 251 493 277.279 493 310C493 342.721 519.279 369 552 369C584.721 369 611 342.721 611 310C611 277.279 584.721 251 552 251ZM552 352.144C528.7 352.144 509.856 333.305 509.856 310C509.856 286.7 528.695 267.856 552 267.856C575.3 267.856 594.144 286.695 594.144 310C594.144 333.3 575.305 352.144 552 352.144Z" fill="black"/>
<path fill-rule="evenodd" clip-rule="evenodd" d="M566.874 312.48C558.941 312.48 552.497 306.037 552.497 298.103C552.497 290.668 557.949 284.717 564.891 283.726C560.923 281.744 556.461 280.753 551.999 280.753C535.636 280.753 522.748 293.646 522.748 310.004C522.748 326.367 535.64 339.255 551.999 339.255C568.362 339.255 581.25 326.363 581.25 310.004C581.25 307.524 580.752 305.542 580.259 303.062C578.277 308.515 573.317 312.484 566.873 312.484L566.874 312.48Z" fill="black"/>
<g clip-path="url(#clip1)">
<path d="M686.603 794.117C747.673 790.032 796.257 772.919 795.118 755.895C793.979 738.871 743.549 728.382 682.479 732.467C621.409 736.552 572.825 753.665 573.963 770.689C575.102 787.713 625.532 798.202 686.603 794.117Z" fill="#FFB626"/>
<path d="M787.948 665.168C777.466 643.654 757.565 641.054 748.804 641.021C748.069 630.022 747.524 622.755 747.524 622.755C747.661 608.788 715.752 598.026 672.95 599.857C630.147 601.688 604.473 619.477 601.016 632.595C597.559 645.712 611.877 746.764 612.521 756.393C613.165 766.022 691.126 793.853 750.57 748.23C751.913 747.157 752.526 740.589 752.654 730.899C783.056 729.121 801.482 692.925 787.948 665.168ZM770.777 697.505C766.406 710.192 758.234 713.216 752.483 713.64C752.125 698.743 751.301 681.282 750.347 665.55C766.719 665.054 777.54 677.817 770.777 697.505Z" fill="white"/>
<path d="M614.181 632.658C619.743 607.348 731.167 602.323 731.198 623.218C731.183 647.389 608.633 658.005 614.181 632.658Z" fill="#812A2B"/>
<path d="M688.199 586.983C690.623 575.026 680.778 572.44 676.137 551.264C671.497 530.087 690.03 518.114 690.03 518.114C690.03 518.114 678.989 545.706 689.334 555.758C699.678 565.809 688.199 586.983 688.199 586.983Z" fill="white"/>
<path d="M666.95 590.547C666.224 581.749 656.831 583.714 650.19 564.814C643.549 545.914 663.015 531.716 663.015 531.716C663.015 531.716 651.974 559.309 662.237 568.294C672.501 577.28 666.95 590.547 666.95 590.547Z" fill="white"/>
<g clip-path="url(#clip2)">
<path fill-rule="evenodd" clip-rule="evenodd" d="M722.406 684.105C722.32 684.253 722.243 684.405 722.178 684.562C722.242 684.557 722.229 684.662 722.315 684.618C722.335 684.442 722.415 684.299 722.408 684.109L722.406 684.105ZM722.433 684.445C722.382 684.505 722.39 684.597 722.342 684.655C722.347 684.731 722.427 684.715 722.44 684.793C722.482 684.704 722.427 684.557 722.433 684.445Z" fill="#1D1D1B"/>
<path fill-rule="evenodd" clip-rule="evenodd" d="M722.407 684.11C722.32 684.257 722.244 684.41 722.179 684.567C722.243 684.562 722.229 684.666 722.316 684.623C722.335 684.443 722.415 684.3 722.407 684.11Z" fill="#1D1D1B"/>
<path fill-rule="evenodd" clip-rule="evenodd" d="M722.406 684.105C722.32 684.253 722.243 684.405 722.178 684.562C722.242 684.557 722.229 684.662 722.315 684.618C722.335 684.442 722.415 684.299 722.408 684.109L722.406 684.105ZM722.433 684.445C722.382 684.505 722.39 684.597 722.342 684.655C722.347 684.731 722.427 684.715 722.44 684.793C722.482 684.704 722.427 684.557 722.433 684.445Z" fill="#1D1D1B"/>
<path fill-rule="evenodd" clip-rule="evenodd" d="M722.407 684.11C722.32 684.257 722.244 684.41 722.179 684.567C722.243 684.562 722.229 684.666 722.316 684.623C722.335 684.443 722.415 684.3 722.407 684.11Z" fill="#1D1D1B"/>
<path d="M627.89 664.422L627.173 655.244C628.883 655.62 630.598 655.975 632.317 656.308C633.297 656.491 634.295 656.811 635.065 657.43C635.638 657.863 636.052 658.729 636.084 659.406C636.11 659.932 635.99 660.375 635.676 660.696C635.361 661.018 634.857 661.164 634.158 661.13L634.16 661.144C634.961 661.379 635.573 661.722 635.982 662.175C636.378 662.605 636.617 663.145 636.666 663.717C636.846 665.621 634.864 665.857 633.34 665.544C631.518 665.196 629.701 664.822 627.89 664.421L627.89 664.422ZM630.323 659.503C630.992 659.639 631.326 659.706 631.996 659.836C632.731 659.978 633.076 659.772 633.033 659.225C632.991 658.679 632.602 658.341 631.868 658.195C631.203 658.065 630.869 657.998 630.2 657.864L630.323 659.503ZM630.606 663.118C631.362 663.273 631.741 663.348 632.499 663.494C633.256 663.641 633.609 663.429 633.565 662.876C633.522 662.322 633.128 661.984 632.374 661.839C631.621 661.694 631.237 661.617 630.481 661.463L630.606 663.118Z" fill="#1D1D1B"/>
<path d="M646.275 658.33L646.69 663.656C646.927 666.26 645.028 667.487 642.453 667.123C639.825 666.754 637.739 665.136 637.592 662.478L637.176 657.154C638.183 657.313 639.192 657.464 640.203 657.606L640.631 663.085C640.706 664.044 641.286 664.787 642.284 664.958C643.258 665.125 643.822 664.335 643.678 663.479L643.25 657.997C644.258 658.119 645.266 658.23 646.275 658.33Z" fill="#1D1D1B"/>
<path d="M650.919 658.729L651.636 667.908C650.625 667.834 649.616 667.752 648.607 667.662L647.89 658.484C648.9 658.576 649.91 658.658 650.919 658.729Z" fill="#1D1D1B"/>
<path d="M656.315 666.053C657.872 666.113 659.429 666.155 660.986 666.179L661.152 668.308C658.581 668.268 656.013 668.175 653.449 668.028L652.732 658.849C653.743 658.91 654.754 658.961 655.765 659.003L656.315 666.053Z" fill="#1D1D1B"/>
<path d="M666.219 659.099C667.473 659.078 668.888 659.314 669.82 660.175C670.751 661.037 671.195 662.323 671.288 663.511C671.378 664.675 671.154 666.007 670.35 666.962C669.545 667.917 668.153 668.241 666.936 668.277C665.436 668.307 663.934 668.321 662.431 668.318L661.714 659.14C663.216 659.142 664.718 659.128 666.219 659.099ZM666.403 666.212C667.126 666.197 667.617 665.975 667.88 665.548C668.143 665.121 668.238 664.487 668.172 663.643C668.106 662.799 667.911 662.173 667.585 661.765C667.259 661.357 666.733 661.163 666.01 661.178C665.569 661.187 665.35 661.191 664.909 661.198L665.302 666.232C665.743 666.226 665.962 666.222 666.403 666.212Z" fill="#1D1D1B"/>
<path d="M680.37 658.012C681.861 657.852 683.572 658.033 684.833 658.902C684.445 659.569 684.055 660.235 683.664 660.9C683.212 660.613 682.715 660.394 682.191 660.25C681.648 660.11 681.08 660.073 680.52 660.143C680.058 660.194 679.734 660.289 679.553 660.43C679.371 660.571 679.285 660.734 679.299 660.919C679.311 661.067 679.415 661.179 679.609 661.251C679.877 661.341 680.157 661.396 680.442 661.416C681.043 661.479 681.343 661.509 681.944 661.567C682.724 661.683 683.551 661.781 684.215 662.231C684.728 662.579 685.013 663.11 685.069 663.823C685.123 664.519 684.984 665.124 684.652 665.637C684.302 666.166 683.806 666.594 683.22 666.875C682.553 667.208 681.824 667.413 681.076 667.477C680.149 667.558 679.215 667.517 678.301 667.355C677.571 667.232 676.705 666.88 676.12 666.424C676.506 665.762 676.892 665.1 677.277 664.437C677.588 664.669 677.934 664.857 678.304 664.995C678.71 665.15 679.134 665.261 679.567 665.325C679.986 665.391 680.413 665.403 680.837 665.359C681.26 665.312 681.564 665.221 681.747 665.087C681.831 665.033 681.899 664.959 681.943 664.873C681.987 664.786 682.007 664.69 681.999 664.595C681.996 664.522 681.974 664.451 681.935 664.388C681.897 664.325 681.842 664.272 681.777 664.234C681.641 664.152 681.394 664.094 681.033 664.063C680.373 663.996 680.043 663.962 679.381 663.886C678.864 663.834 678.356 663.728 677.865 663.571C677.42 663.433 677.023 663.185 676.712 662.852C676.413 662.528 676.242 662.082 676.198 661.515C676.143 660.945 676.281 660.372 676.591 659.878C676.902 659.389 677.377 658.984 678.017 658.656C678.703 658.296 679.622 658.093 680.37 658.012Z" fill="#1D1D1B"/>
<path d="M694.397 655.973L694.564 658.102C693.542 658.307 692.519 658.502 691.494 658.687L692.044 665.738C691.049 665.918 690.052 666.088 689.053 666.25L688.503 659.201C687.466 659.367 686.427 659.525 685.386 659.674L685.22 657.545C688.294 657.097 691.353 656.573 694.397 655.973Z" fill="#1D1D1B"/>
<path d="M704.344 653.65L704.76 658.976C704.981 661.593 703.247 663.48 700.637 664.085C698.13 664.663 695.969 663.738 695.849 661.088L695.433 655.762C696.429 655.556 697.423 655.34 698.415 655.115L698.843 660.594C698.84 661.47 699.51 662.183 700.468 661.916C701.402 661.654 701.969 660.824 701.828 659.886L701.401 654.407C702.384 654.164 703.365 653.912 704.344 653.65Z" fill="#1D1D1B"/>
<path d="M713.659 653.041C712.113 653.549 710.561 654.038 709.002 654.508L709.127 656.104C710.376 655.73 711.621 655.342 712.861 654.94L713.028 657.069C711.788 657.472 710.543 657.86 709.293 658.233L709.553 661.556C708.581 661.847 707.606 662.127 706.628 662.397L705.912 653.223C708.457 652.507 710.984 651.737 713.493 650.914L713.659 653.043L713.659 653.041Z" fill="#1D1D1B"/>
<path d="M722.274 649.909C720.756 650.506 719.23 651.084 717.697 651.643L717.822 653.24C719.051 652.795 720.275 652.335 721.493 651.862L721.659 653.99C720.442 654.466 719.219 654.926 717.989 655.369L718.249 658.692C717.292 659.036 716.333 659.373 715.37 659.703L714.653 650.524C717.162 649.662 719.647 648.747 722.108 647.781L722.274 649.909Z" fill="#1D1D1B"/>
<path d="M635.233 682.912C638.316 683.47 641.413 683.948 644.522 684.345L644.855 688.61C639.713 687.952 634.618 687.067 629.571 685.953L628.134 667.555C630.127 667.996 632.126 668.405 634.131 668.78L635.234 682.912L635.233 682.912Z" fill="#1D1D1B"/>
<path d="M647.406 688.907L645.97 670.509C651.236 671.063 656.517 671.376 661.812 671.446L662.146 675.715C658.881 675.672 655.624 675.541 652.374 675.321L652.607 678.304C655.207 678.48 657.809 678.6 660.414 678.665L660.723 682.624C658.116 682.558 655.514 682.438 652.916 682.262L653.145 685.189C656.529 685.416 659.916 685.549 663.307 685.586L663.64 689.851C658.211 689.792 652.801 689.479 647.411 688.911L647.406 688.907Z" fill="#1D1D1B"/>
<path d="M684.714 688.638C682.64 688.886 680.566 689.101 678.49 689.282L677.093 685.549C675.1 685.697 673.107 685.815 671.114 685.901C670.839 687.187 670.561 688.474 670.281 689.761C668.254 689.823 666.227 689.852 664.201 689.85C665.939 683.685 667.665 677.517 669.379 671.345C671.811 671.249 674.24 671.105 676.666 670.915C679.336 676.827 682.018 682.735 684.714 688.638ZM671.84 682.177C673.17 682.115 674.498 682.037 675.826 681.943C674.982 679.7 674.139 677.458 673.297 675.215C672.813 677.536 672.327 679.857 671.84 682.177Z" fill="#1D1D1B"/>
<path d="M694.934 668.371C696.821 668.054 698.867 667.825 700.614 668.745C702.057 669.456 702.778 671 702.9 672.467C703.002 673.683 702.795 674.991 702.224 676.111C701.666 677.215 700.679 678.104 699.604 678.749C701.39 680.779 703.185 682.801 704.988 684.817C702.836 685.359 700.675 685.863 698.505 686.33C697.086 684.452 695.672 682.574 694.263 680.695C693.452 680.847 692.64 680.993 691.827 681.132L692.325 687.517C690.365 687.848 688.401 688.148 686.433 688.417L684.996 670.02C688.324 669.563 691.637 669.013 694.934 668.371ZM694.601 676.699C695.44 676.539 696.056 676.258 696.453 675.866C696.849 675.474 697.017 674.924 696.962 674.22C696.907 673.516 696.657 673.047 696.214 672.816C695.771 672.584 695.129 672.555 694.29 672.715C693.264 672.912 692.237 673.098 691.208 673.274L691.52 677.26C692.548 677.084 693.575 676.898 694.601 676.701L694.601 676.699Z" fill="#1D1D1B"/>
<path d="M723.07 660.096L724.507 678.494C722.424 679.313 720.326 680.094 718.211 680.838C716.26 678.368 714.317 675.894 712.382 673.415L710.987 671.306L710.931 671.323C711.063 672.52 711.196 673.716 711.328 674.912L711.95 682.875C710.251 683.385 708.545 683.872 706.832 684.336L705.395 665.939C707.542 665.358 709.676 664.739 711.798 664.082C713.732 666.561 715.675 669.036 717.626 671.505L719.034 673.556L719.063 673.545C718.931 672.351 718.799 671.157 718.667 669.963L718.044 661.988C719.73 661.379 721.405 660.749 723.07 660.096Z" fill="#1D1D1B"/>
<path d="M645.38 690.473L645.662 694.089C643.899 693.87 642.141 693.625 640.387 693.354L641.323 705.34C639.616 705.069 637.914 704.775 636.217 704.46L635.281 692.476C633.512 692.137 631.749 691.773 629.995 691.386L629.712 687.769C634.888 688.911 640.111 689.812 645.38 690.473Z" fill="#1D1D1B"/>
<path d="M652.635 691.194L653.098 697.124C654.899 697.256 656.701 697.364 658.504 697.448L658.041 691.518C659.768 691.587 661.496 691.634 663.224 691.658L664.442 707.258C662.714 707.234 660.986 707.188 659.26 707.119L658.787 701.065C656.983 700.982 655.181 700.874 653.381 700.741L653.853 706.793C652.136 706.656 650.421 706.497 648.709 706.316L647.491 690.718C649.204 690.899 650.919 691.058 652.635 691.194Z" fill="#1D1D1B"/>
<path d="M671.461 691.539L672.679 707.14C670.961 707.204 669.242 707.245 667.525 707.263L666.307 691.662C668.026 691.643 669.744 691.602 671.461 691.539Z" fill="#1D1D1B"/>
<path d="M690.16 689.709L691.379 705.31C689.513 705.597 687.644 705.857 685.771 706.089C684.054 703.679 682.345 701.263 680.645 698.84C680.237 698.171 679.829 697.501 679.423 696.831L679.373 696.835C679.486 697.857 679.599 698.878 679.713 699.9L680.241 706.66C678.748 706.785 677.254 706.894 675.759 706.986L674.541 691.388C676.416 691.272 678.289 691.13 680.159 690.96C681.86 693.377 683.568 695.791 685.285 698.202C685.699 698.858 686.113 699.514 686.527 700.17L686.549 700.168C686.437 699.148 686.323 698.128 686.21 697.108L685.682 690.347C687.177 690.151 688.67 689.938 690.16 689.709Z" fill="#1D1D1B"/>
<path d="M701.288 703.68C700.023 703.971 698.612 703.962 697.365 703.572C696.181 703.206 695.195 702.354 694.509 701.385C693.663 700.15 693.306 698.597 693.194 697.159C693.077 695.659 693.246 694.04 693.861 692.62C694.404 691.321 695.37 690.165 696.529 689.312C697.793 688.356 699.385 687.734 700.922 687.408C702.45 687.083 704.1 686.824 705.65 687.272C706.913 687.675 707.969 688.576 708.588 689.696C707.09 690.674 705.582 691.639 704.064 692.588C703.839 691.857 703.484 691.385 703 691.171C702.515 690.958 701.925 690.935 701.237 691.089C698.792 691.634 698.188 694.054 698.41 696.124C698.532 697.253 698.692 698.473 699.542 699.346C700.265 700.009 701.346 700.047 702.27 699.826C703.046 699.638 703.698 699.316 704.188 698.844C704.677 698.371 704.895 697.787 704.841 697.094L704.832 696.976C703.767 697.24 702.7 697.493 701.63 697.735L701.388 694.639C703.875 694.068 706.347 693.446 708.805 692.775L709.479 701.403C708.363 701.708 707.244 702.004 706.124 702.292C705.986 701.565 705.918 701.202 705.781 700.475C704.94 702.215 703.175 703.247 701.288 703.68Z" fill="#1D1D1B"/>
<path d="M717.594 682.67C719.8 681.913 722.577 681.345 724.82 682.504C724.199 683.811 723.576 685.116 722.952 686.42C722.203 686.089 721.393 685.898 720.566 685.859C719.624 685.794 718.713 686.024 717.854 686.293C717.114 686.526 716.575 686.832 716.277 687.141C715.979 687.449 715.842 687.761 715.867 688.075C715.887 688.329 716.055 688.483 716.373 688.539C716.69 688.596 717.144 688.59 717.73 688.52C718.545 688.429 719.359 688.33 720.171 688.224C721.362 688.108 722.738 687.952 723.847 688.499C724.785 688.961 725.163 689.984 725.233 690.915C725.313 692.048 725.087 693.185 724.574 694.217C724.046 695.265 723.21 696.176 722.274 696.912C721.238 697.718 720.06 698.343 718.796 698.756C717.344 699.234 715.832 699.529 714.268 699.532C713.034 699.535 711.747 699.27 710.68 698.665C711.313 697.391 711.944 696.118 712.573 694.846C713.091 695.142 713.662 695.348 714.258 695.454C714.937 695.582 715.632 695.624 716.324 695.58C717.03 695.541 717.727 695.406 718.394 695.179C719.082 694.943 719.575 694.674 719.871 694.375C720.167 694.077 720.306 693.76 720.28 693.425C720.259 693.158 720.138 692.978 719.916 692.886C719.694 692.795 719.293 692.787 718.706 692.86C717.808 692.965 716.91 693.065 716.012 693.159C715.188 693.26 714.354 693.256 713.532 693.147C712.763 693.046 712.133 692.757 711.64 692.3C711.029 691.736 710.878 690.9 710.79 690.168C710.67 689.193 710.938 688.124 711.429 687.212C712 686.196 712.795 685.309 713.759 684.611C714.933 683.76 716.248 683.131 717.594 682.67Z" fill="#1D1D1B"/>
<path d="M633.744 711.299C634.974 711.555 636.207 711.798 637.442 712.028L637.576 713.735C635.534 713.353 633.503 712.936 631.482 712.487L630.907 705.122C631.704 705.301 632.502 705.475 633.302 705.642L633.743 711.299L633.744 711.299Z" fill="#1D1D1B"/>
<path d="M641.377 707.007C642.077 707.105 642.914 707.388 643.503 707.771C644.1 708.152 644.594 708.662 644.945 709.259C645.314 709.857 645.532 710.684 645.574 711.363C645.623 712.148 645.533 712.819 645.264 713.343C645.015 713.849 644.571 714.247 644.025 714.455C643.468 714.673 642.772 714.706 641.97 714.594C641.266 714.496 640.426 714.206 639.84 713.801C639.238 713.405 638.742 712.879 638.392 712.266C638.023 711.66 637.804 710.827 637.761 710.14C637.712 709.354 637.803 708.692 638.073 708.182C638.328 707.687 638.774 707.305 639.319 707.117C639.878 706.914 640.574 706.892 641.377 707.007ZM641.513 708.747C640.348 708.532 640.172 709.752 640.242 710.57C640.324 711.55 640.702 712.66 641.834 712.854C642.944 713.044 643.227 711.839 643.094 711.017C643.076 710.045 642.607 708.947 641.513 708.747Z" fill="#1D1D1B"/>
<path d="M653.79 708.568C653.078 710.945 652.364 713.321 651.649 715.696C650.689 715.605 649.729 715.505 648.771 715.397C647.672 712.831 646.578 710.265 645.486 707.698C646.328 707.809 647.172 707.911 648.016 708.007C648.547 709.463 649.077 710.919 649.607 712.375C649.814 712.971 649.918 713.265 650.125 713.857L650.396 712.479C650.709 711.103 651.023 709.727 651.337 708.351C652.155 708.428 652.973 708.498 653.791 708.561L653.79 708.568Z" fill="#1D1D1B"/>
<path d="M655.08 715.988L654.505 708.623C656.619 708.771 658.734 708.885 660.851 708.963L660.984 710.671C659.68 710.628 658.376 710.568 657.07 710.49L657.164 711.684C658.205 711.745 659.247 711.796 660.289 711.836L660.413 713.42C659.37 713.381 658.328 713.33 657.287 713.268L657.379 714.44C658.734 714.516 660.09 714.578 661.447 714.625L661.581 716.332C659.41 716.253 657.244 716.138 655.08 715.986L655.08 715.988Z" fill="#1D1D1B"/>
<path d="M667.094 716.422C666.151 713.963 665.208 711.503 664.264 709.044C665.14 709.052 666.016 709.056 666.89 709.056C667.401 710.907 667.917 712.757 668.437 714.606C668.706 712.749 668.975 710.891 669.244 709.031C670.103 709.016 670.53 709.007 671.391 708.979C671.967 710.805 672.544 712.632 673.122 714.458C673.34 712.602 673.558 710.745 673.775 708.888C674.617 708.85 675.459 708.805 676.301 708.753C675.744 711.249 675.186 713.745 674.625 716.241C673.75 716.279 672.876 716.314 672.003 716.344C671.666 715.302 671.33 714.26 670.994 713.218C670.808 712.486 670.714 712.119 670.529 711.385L670.494 711.388C670.423 712.128 670.386 712.497 670.316 713.238C670.144 714.291 669.972 715.345 669.799 716.399C668.9 716.413 668 716.421 667.1 716.424L667.094 716.422Z" fill="#1D1D1B"/>
<path d="M679.461 708.529L679.68 711.329C680.528 711.263 681.376 711.188 682.222 711.104L682.004 708.303C682.815 708.225 683.626 708.14 684.436 708.049L685.011 715.414C684.201 715.506 683.39 715.59 682.579 715.668L682.356 712.811C681.509 712.894 680.661 712.969 679.813 713.037L680.037 715.894C679.229 715.96 678.42 716.019 677.61 716.072L677.034 708.707C677.844 708.654 678.653 708.595 679.461 708.529Z" fill="#1D1D1B"/>
<path d="M693.85 714.179C693.027 714.318 692.202 714.45 691.375 714.575C691.153 713.99 691.042 713.697 690.819 713.111C690.029 713.231 689.237 713.343 688.445 713.45C688.314 714.086 688.247 714.404 688.115 715.038C687.311 715.144 686.506 715.244 685.7 715.338C686.387 712.774 687.072 710.209 687.756 707.645C688.722 707.518 689.686 707.381 690.65 707.234C691.714 709.549 692.781 711.864 693.85 714.179ZM688.731 711.921C689.365 711.834 689.681 711.789 690.314 711.696L689.309 709.065L688.731 711.921Z" fill="#1D1D1B"/>
<path d="M699.902 705.558L700.035 707.266C699.217 707.439 698.398 707.605 697.579 707.763L698.021 713.421C697.225 713.577 696.427 713.727 695.628 713.869L695.186 708.213C694.356 708.362 693.524 708.504 692.691 708.637L692.558 706.932C695.016 706.523 697.464 706.065 699.902 705.558Z" fill="#1D1D1B"/>
<path d="M710.694 702.89C709.932 704.72 709.168 706.549 708.4 708.376L708.603 710.988C707.815 711.198 707.024 711.401 706.23 711.599L706.026 708.988C705.001 707.62 703.979 706.252 702.959 704.882C703.763 704.697 704.565 704.505 705.365 704.306C705.793 704.95 706.004 705.273 706.436 705.914C706.703 706.37 706.837 706.598 707.104 707.052C707.286 706.482 707.378 706.197 707.556 705.625C707.824 704.929 708.088 704.233 708.349 703.536C709.132 703.328 709.912 703.112 710.69 702.89L710.694 702.89Z" fill="#1D1D1B"/>
<path d="M714.361 701.687C715.138 701.458 715.829 701.38 716.412 701.499C716.976 701.61 717.472 701.924 717.796 702.376C718.139 702.842 718.331 703.482 718.405 704.268C718.469 704.951 718.381 705.805 718.115 706.46C717.868 707.115 717.462 707.705 716.93 708.184C716.414 708.668 715.631 709.075 714.949 709.274C714.172 709.503 713.475 709.571 712.885 709.436C712.308 709.31 711.804 708.982 711.474 708.517C711.122 708.039 710.928 707.389 710.854 706.606C710.79 705.929 710.89 705.073 711.155 704.433C711.418 703.793 711.832 703.218 712.363 702.752C712.892 702.289 713.679 701.888 714.361 701.687ZM714.497 703.428C713.398 703.784 713.197 704.924 713.268 705.905C713.327 706.727 713.697 707.911 714.814 707.535C715.866 707.181 716.084 705.951 716.024 705.05C715.973 704.27 715.565 703.08 714.497 703.428Z" fill="#1D1D1B"/>
<path d="M726.006 697.696L726.34 701.97C726.565 704.115 725.125 705.71 723.151 706.492C721.221 707.254 719.579 706.597 719.419 704.531L719.086 700.257C719.862 699.992 720.635 699.72 721.405 699.44L721.749 703.836C721.818 704.728 722.244 705.021 723.015 704.75C723.786 704.479 724.157 703.734 724.069 702.978L723.725 698.581C724.489 698.292 725.25 697.997 726.01 697.696L726.006 697.696Z" fill="#1D1D1B"/>
<path d="M654.002 719.058C660.478 719.638 667.106 721.15 671.953 725.498C676.801 729.847 678.792 736.023 679.268 742.137C679.727 748.026 678.912 754.609 674.594 759.317C670.313 764.052 663.813 765.216 657.574 764.796C650.072 764.159 642.63 763.024 635.302 761.4L631.73 715.66C639.058 717.285 646.5 718.421 654.002 719.058ZM654.919 754.309C657.647 754.479 660.692 754.171 662.263 751.719C664.013 748.982 663.949 745.399 663.714 742.38C663.461 739.141 662.848 735.604 660.791 732.869C658.995 730.485 655.937 729.471 652.96 729.223C651.135 729.046 649.314 728.845 647.496 728.619L649.455 753.707C651.273 753.933 653.094 754.135 654.919 754.31L654.919 754.309Z" fill="#1D1D1B"/>
<path d="M723.326 744.724C722.786 744.891 722.225 744.991 721.659 745.02C721.635 744.235 721.674 743.448 721.776 742.668C722.392 741.762 722.818 740.753 723.029 739.696C724.612 739.405 726.234 739.298 727.837 739.172C726.525 738.21 724.786 738.11 723.197 738.354C723.204 738.175 723.206 737.998 723.201 737.823C724.543 737.19 725.943 736.667 727.336 736.139C725.891 735.739 724.42 736.222 723.082 736.734C723.067 736.653 723.05 736.577 723.03 736.502C723.181 735.912 723.322 735.371 723.438 734.904C723.632 734.633 723.81 734.352 723.971 734.062C725.033 732.086 725.635 729.267 724.578 727.188C724.362 726.746 724.577 725.727 724.791 725.178L724.892 724.94C724.914 724.829 724.924 724.774 724.946 724.664C725.194 723.233 724.685 721.707 724.061 720.424C723.674 719.595 723.1 718.876 722.53 718.156L722.749 718.149C722.983 717.468 723.215 716.787 723.447 716.106C723.854 714.87 724.173 713.46 723.967 712.164C723.526 708.979 720.192 709.592 717.939 710.667C715.748 711.657 713.858 713.475 712.614 715.431L712.276 715.448C707.435 715.052 702.848 716.105 698.516 718.178C697.228 717.251 695.979 716.617 694.406 716.213C690.954 715.522 687.933 717.062 687.44 720.538C687.274 722.365 687.644 723.739 688.605 725.324C680.333 736.267 680.913 754.54 695.718 760.024C708.945 764.87 729.392 755.829 729.397 741.08C727.667 742.698 725.588 743.915 723.326 744.724ZM720.281 741.291C720.274 742.929 719.896 744.763 718.893 746.141C719.07 744.938 718.896 743.778 718.651 742.602C717.782 742.814 716.773 742.753 715.905 742.568C715.956 741.503 716.529 740.587 717.209 739.823C718.171 738.743 717.926 737.262 718.796 736.19L718.949 736.015C717.857 736.65 716.812 737.339 715.627 737.87C714.163 738.366 712.662 738.693 711.112 738.459L711.105 738.459C711.162 738.844 711.338 739.203 711.61 739.49C711.832 739.77 712.139 739.978 712.489 740.086L712.529 740.099C713.114 740.371 716.082 742.366 714.582 742.93C713.525 743.189 712.59 743.717 711.664 744.253C710.858 744.759 710.055 745.296 709.194 745.711C708.962 745.817 708.722 745.905 708.476 745.977C708.286 746.026 708.09 746.055 707.894 746.063C706.851 746.107 706.385 745.295 706.384 745.282C707.067 744.674 707.862 744.271 708.695 743.878C709.751 743.459 710.815 743.061 711.897 742.71C710.58 742.869 709.226 743.016 707.952 743.389C706.754 743.766 706.13 744.199 706.123 744.205C706.116 744.211 705.812 743.602 706.175 743.179C706.928 742.509 708.13 742.12 709.11 741.875C709.765 741.71 710.43 741.58 711.099 741.485C710.055 741.321 708.936 741.224 707.887 741.419C707.528 741.485 707.22 741.556 706.96 741.623C706.583 741.711 706.215 741.831 705.861 741.982C705.874 741.932 706.083 741.209 706.611 740.844C707.156 740.465 707.582 740.315 708.333 740.34C708.379 740.342 708.426 740.343 708.474 740.346C708.67 740.362 708.87 740.384 709.066 740.399L709.192 740.413C709.395 740.453 709.657 740.48 709.9 740.511C710.055 740.535 710.152 740.553 710.152 740.553C710.15 740.551 710.146 740.549 710.143 740.547C709.471 740.184 708.718 739.824 707.936 739.76C707.511 739.764 707.087 739.81 706.671 739.896C706.934 739.556 707.065 739.385 707.329 739.043L707.47 738.858L707.46 738.859L707.465 738.853C706.401 739.177 705.69 739.927 705.014 740.738C704.267 741.799 704.092 743.163 704.329 744.394C704.152 744.271 703.964 744.164 703.767 744.073C702.806 743.613 701.788 743.276 700.769 742.945C698.758 742.226 697.345 741.246 696.887 739.165C696.744 738.258 696.639 737.357 696.807 736.443C695.17 737.823 694.094 739.841 693.808 741.888L693.804 741.907L693.805 741.917C693.768 742.15 693.738 742.375 693.718 742.605C693.032 751.421 703.352 758.864 712.104 757.574C705.845 758.994 698.687 759.213 693.354 755.306C693.266 755.243 693.179 755.178 693.093 755.113C691.646 753.931 690.375 752.567 689.315 751.058C688.257 749.401 687.425 747.621 686.84 745.761C684.613 738.069 687.772 730.669 693.435 725.06C693.435 725.06 694.278 724.335 694.214 723.335C694.211 723.3 694.208 723.265 694.206 723.229C694.206 723.224 694.205 723.218 694.204 723.213C694.201 723.174 694.193 723.138 694.185 723.095C694.185 723.092 694.185 723.089 694.184 723.086C694.097 722.719 693.915 722.379 693.653 722.097C693.146 721.558 691.638 719.877 690.924 720.88C690.305 721.748 690.669 723.419 690.843 724.5C690.039 723.424 689.55 722.038 689.729 720.708C689.847 719.902 690.101 719.284 690.52 718.867C690.523 718.864 690.526 718.86 690.53 718.857C690.557 718.829 690.588 718.803 690.617 718.774L690.665 718.733C690.696 718.708 690.727 718.683 690.76 718.66L690.824 718.616C690.845 718.603 690.865 718.59 690.887 718.577C690.909 718.564 690.938 718.547 690.964 718.532L691.017 718.503C691.048 718.488 691.078 718.474 691.109 718.46L691.149 718.442C691.958 718.118 692.895 718.196 693.726 718.376C696.115 718.915 697.878 720.665 699.474 722.324C700.358 723.233 700.533 723.515 700.562 723.562L700.563 723.57C700.401 722.655 700.239 721.739 700.077 720.823C700.094 720.809 700.113 720.795 700.132 720.783C700.144 720.774 700.159 720.764 700.177 720.752C700.289 720.68 700.405 720.613 700.524 720.551C700.541 720.542 700.558 720.533 700.575 720.525L700.688 720.468L700.814 720.408L701.029 720.309L701.192 720.239L701.279 720.202C701.399 720.153 701.528 720.1 701.67 720.046C701.74 720.018 701.814 719.99 701.89 719.962L702.008 719.919L702.255 719.83C702.341 719.8 702.43 719.769 702.522 719.738C702.659 719.691 702.804 719.643 702.957 719.594C703.365 719.462 703.822 719.322 704.346 719.174C704.476 719.136 704.61 719.099 704.748 719.06C705.367 718.887 706.064 718.704 706.847 718.508C707.017 718.466 707.185 718.425 707.35 718.387C707.405 718.373 707.459 718.362 707.515 718.35C707.624 718.325 707.733 718.3 707.84 718.277L708.031 718.237L708.315 718.178L708.511 718.14L708.774 718.09L708.971 718.055L709.22 718.011L709.412 717.98C709.492 717.967 709.571 717.954 709.651 717.943L709.838 717.916C709.917 717.904 709.992 717.893 710.067 717.883L710.246 717.86C710.321 717.85 710.396 717.841 710.47 717.833L710.639 717.814C710.713 717.808 710.785 717.797 710.857 717.791C710.91 717.787 710.964 717.783 711.017 717.779L711.228 717.762L711.379 717.75L711.587 717.734L711.727 717.723L711.931 717.712L712.058 717.706C712.127 717.701 712.194 717.7 712.261 717.698L712.373 717.695C712.442 717.689 712.51 717.691 712.577 717.691L712.673 717.689C712.743 717.689 712.811 717.688 712.878 717.689L712.959 717.689L713.169 717.692L713.229 717.693L713.448 717.7L713.482 717.697L713.715 717.709L713.72 717.708C714.726 717.766 715.291 717.909 715.388 717.936L715.406 717.941C714.937 717.424 714.701 717.165 714.233 716.645C715.178 715.03 716.626 713.543 718.382 712.721L718.615 712.616L718.736 712.563L718.836 712.519L718.965 712.466L719.047 712.432C719.09 712.414 719.132 712.399 719.173 712.383L719.251 712.354L719.373 712.308L719.442 712.283L719.558 712.244C719.579 712.236 719.602 712.228 719.624 712.222L719.733 712.187L719.796 712.169L719.899 712.139L719.958 712.124L720.057 712.099L720.111 712.087C720.143 712.08 720.174 712.073 720.205 712.067L720.255 712.059C720.284 712.056 720.315 712.048 720.344 712.043L720.39 712.04L720.475 712.029L720.598 712.019L720.631 712.016L720.712 712.015L720.721 712.015C720.808 712.016 720.895 712.026 720.98 712.043L721.007 712.048L721.062 712.063L721.095 712.073L721.143 712.091L721.175 712.104L721.219 712.124C721.229 712.129 721.239 712.135 721.25 712.14L721.289 712.164C721.299 712.169 721.308 712.175 721.317 712.182L721.355 712.208C721.362 712.215 721.372 712.222 721.38 712.229C721.388 712.237 721.403 712.249 721.413 712.259L721.437 712.282C721.448 712.292 721.459 712.304 721.469 712.316C721.476 712.323 721.482 712.331 721.489 712.339C721.499 712.351 721.509 712.364 721.518 712.377L721.535 712.4C721.545 712.414 721.555 712.429 721.564 712.443L721.576 712.465C721.585 712.481 721.595 712.497 721.604 712.514L721.613 712.531C721.621 712.55 721.631 712.569 721.64 712.589C721.64 712.589 721.64 712.589 721.641 712.594C721.71 712.762 721.758 712.938 721.784 713.118C721.907 714.018 721.667 715.022 721.38 715.879C721.458 715.242 721.343 713.723 720.359 714.142C719.219 714.625 718.549 716.195 718.123 717.335C719.603 718.616 721.169 720.106 722.023 721.849C722.418 722.78 722.869 723.777 722.785 724.809C722.328 725.992 722.018 727.453 722.554 728.644C723.218 730.073 722.85 731.973 722.123 733.332C721.579 734.306 721.067 734.567 721.067 734.567C720.215 734.653 719.363 734.731 718.509 734.801C719.472 735.261 720.078 736.143 720.636 736.979C721.344 738.274 721.022 740.057 720.281 741.292L720.281 741.291Z" fill="#1D1D1B"/>
<path d="M718.905 729.3L718.912 729.3L718.929 729.289L718.942 729.281L718.953 729.272L718.971 729.261L718.976 729.26L718.999 729.244L719.02 729.226L719.026 729.226L719.043 729.213L719.054 729.204L719.065 729.195L719.081 729.181L719.086 729.181L719.108 729.161L719.128 729.142L719.135 729.142L719.149 729.128L719.161 729.117L719.17 729.108L719.187 729.092L719.208 729.07L719.225 729.05L719.231 729.043L719.246 729.028L719.257 729.015L719.266 729.006L719.281 728.987L719.301 728.964L719.319 728.943L719.325 728.935L719.337 728.919L719.349 728.905L719.356 728.896L719.372 728.874L719.398 728.825L719.414 728.804L719.421 728.795L719.432 728.779L719.444 728.763L719.45 728.754L719.465 728.732L719.483 728.707L719.496 728.687L719.502 728.678L719.512 728.662L719.524 728.645L719.53 728.637L719.546 728.612L719.556 728.596C719.565 728.582 719.573 728.568 719.583 728.554L719.592 728.539L719.604 728.521L719.609 728.513L719.629 728.478L719.639 728.464C719.77 728.244 719.891 728.018 720.01 727.807C720.091 727.664 720.172 727.527 720.256 727.406C720.518 727.045 720.849 726.734 721.231 726.488C721.237 726.251 721.184 726.017 721.075 725.805C720.974 725.612 720.817 725.451 720.621 725.342C719.914 724.938 719.072 725.451 718.49 725.759C717.608 726.225 716.557 727.018 716.076 727.913C716.258 729.258 716.917 730.616 717.397 731.887L717.685 729.822C718.11 729.723 718.514 729.556 718.88 729.327L718.905 729.3ZM718.559 728.256C717.674 728.679 717.155 728.257 717.155 728.257L717.561 727.919C717.561 727.919 718.2 727.946 718.458 727.675C718.716 727.405 718.78 727.002 718.78 727.002C719.164 726.763 719.359 726.643 719.743 726.402C719.634 727.136 719.275 727.885 718.558 728.253L718.559 728.256Z" fill="#1D1D1B"/>
<path d="M710.617 734.066C710.209 732.747 709.793 730.841 708.67 729.916C707.157 729.229 704.898 728.934 703.296 729.454C702.384 729.831 701.763 730.662 701.484 731.546C701.484 731.546 702.647 731.846 703.514 732.236C704.274 732.625 704.974 732.952 705.873 732.859C706.651 732.81 707.41 732.601 708.096 732.245C708.647 733.053 709.517 734.025 710.609 734.066L710.617 734.066L710.617 734.066ZM706.87 732.116C705.965 732.316 705.22 731.723 704.85 730.994C705.379 730.949 705.643 730.924 706.17 730.874C706.17 730.874 706.387 731.278 706.779 731.372C707.171 731.466 707.893 730.898 707.893 730.898L708.477 730.941C708.312 731.234 708.083 731.49 707.806 731.693C707.529 731.896 707.21 732.04 706.87 732.116Z" fill="#1D1D1B"/>
</g>
</g>
</g>
<defs>
<clipPath id="clip0">
<rect width="800" height="800" fill="white"/>
</clipPath>
<clipPath id="clip1">
<rect width="223.836" height="275.159" fill="white" transform="translate(557.66 526.968) rotate(-3.82696)"/>
</clipPath>
<clipPath id="clip2">
<rect width="95.3897" height="111.99" fill="white" transform="translate(627.01 655.206) rotate(-4.46492)"/>
</clipPath>
</defs>
</svg>
